<svg id="ebc289a3-f97b-40bc-b2b6-295239f32e40" data-name="Layer 1" xmlns="http://www.w3.org/2000/svg" viewBox="0 0 43.14606 43.14606">
  <title>Blog DB</title>
  <path d="M21.57335,0A21.573,21.573,0,1,0,43.14606,21.57335,21.573,21.573,0,0,0,21.57335,0Z" fill="#011b33"/>
  <g>
    <g>
      <path d="M23.84261,9.57755c-.19238-.05738-.395-.08887-.59308-.13208A7.83788,7.83788,0,0,0,21.573,9.24478a7.74622,7.74622,0,0,0-1.59638.18225c-.08282.01721-.167.03076-.25012.04761l-.02759.00525c-.0166.00354-.03375.00537-.05023.00952-.173.04309-.33643.10754-.5047.16138-.01929.0061-.03772.014-.05676.02051a1.164,1.164,0,0,1,.23114.6853,6.215,6.215,0,0,1,1.52527,5.20923c-.38831,1.8562-1.01264,3.66809-1.23639,5.55639-.04834.40821-.08795.81909-.13025,1.229a6.90433,6.90433,0,0,1,.26416,1.12341l.01044.07288a5.46516,5.46516,0,0,1-.15479,2.12353.90063.90063,0,0,1,.89453.84107,1.70568,1.70568,0,0,1-.08893.751l.02277.00135c.09393.004.17413.01025.27417.01342.16876.00525.34375.00965.53076.01184.00916.00061.014.00415.024.00415.05261,0,.19751.00122.38031.0022.12005.00061.25342.0011.39831.00073a7.95206,7.95206,0,0,0,1.23255-.05908,7.36529,7.36529,0,0,0,2.00427-.34021.48083.48083,0,0,0,.14874-.069.68.68,0,0,0,.17285-.1947,1.32118,1.32118,0,0,0,.10956-.21155,5.04847,5.04847,0,0,0,.214-.73022,3.57,3.57,0,0,0,.03961-.87183,4.10424,4.10424,0,0,1-.06671-.95569,1.05517,1.05517,0,0,1,.27289-.44958c.13385-.12061.29346-.20825.4325-.32276a7.8692,7.8692,0,0,0,2.26763-3.04431,7.79834,7.79834,0,0,0-5.018-10.47033Z" fill="#00e1ff"/>
      <path d="M25.53157,29.7178l.0055-.00293a.36293.36293,0,0,0-.02362-.08679.50429.50429,0,0,0-.0224-.08227.95105.95105,0,0,0-.30817-.34253,1.21728,1.21728,0,0,0-.29834-.12036c-.02814-.00806-.05762-.01624-.0899-.02442a8.519,8.519,0,0,0-1.53626-.19336c-.24268-.01416-.51868-.02466-.82172-.03222-.035-.00086-.07885-.00061-.11456-.00147q-.36154-.00879-.7464-.00928H21.573c-.10407,0-.18726.00257-.28559.0033-.14788.0011-.29443.00232-.42975.005a11.825,11.825,0,0,0-2.51287.23046c-.017.0044-.03839.00879-.05414.01319a1.29533,1.29533,0,0,0-.3266.12866,1.02229,1.02229,0,0,1-.02753.25488,1.027,1.027,0,0,1,.20362.27906c-.09339-.19861.04473.05151.07556.09326.057.07739.11847.15136.17859.22619.12.14966.24749.29541.35406.45533a1.61886,1.61886,0,0,1,.32556,1.08825l.0329.0044.00208.00427c.38586,1.04834,1.38049,1.29968,2.46411,1.29993a4.68433,4.68433,0,0,0,.88257-.07666,2.53144,2.53144,0,0,0,.80242-.28663,1.744,1.744,0,0,0,.78119-.94091l.03406-.00464c.00812-.00025.01685.00073.02033.00012l.00036.00012h.01288l.734-.11987a1.01532,1.01532,0,0,0,.46094-.14038l-.002-.00244a.49191.49191,0,0,0,.2395-.41956V29.75577C25.5392,29.74222,25.53255,29.731,25.53157,29.7178Z" fill="#00e1ff"/>
    </g>
    <path d="M21.573,28.82217c-.10407,0-.18726.00257-.28559.0033.09626-.00085.1886-.0033.28687-.0033Z" fill="#fff"/>
    <path d="M22.43666,28.83292c-.035-.00086-.07885-.00061-.11456-.00147l.07837.00281Z" fill="#fff"/>
    <path d="M18.34481,29.06094a13.63054,13.63054,0,0,1,2.51287-.23046A11.825,11.825,0,0,0,18.34481,29.06094Z" fill="#fff"/>
    <g>
      <path d="M20.61879,26.93582,20.6014,25.692c-.11353-.48023.17706-1.30957.03918-1.76807-.00586-.01977-.00512-.03979-.01214-.05945a1.23544,1.23544,0,0,0-.11884-.22278l.01111-.00341A.32761.32761,0,0,1,20.603,23.118c.27429-.17273.52886-.33313.65985-.42053l.01635-.01087.04242-.02819-.00128-.00049A7.84025,7.84025,0,0,0,24.943,16.14859a6.87084,6.87084,0,0,0-.80939-3.41821l.005.00317c-.01019-.01953-.0221-.03564-.03241-.05517-.019-.03309-.038-.06543-.05744-.09754a5.62016,5.62016,0,0,0-4.90472-2.93,7.76123,7.76123,0,0,0-1.43652.60388,7.20321,7.20321,0,0,0-1.308.92126,7.7671,7.7671,0,0,0-2.11407,8.872,7.84352,7.84352,0,0,0,1.63245,2.46228c.04254.0437.09106.08081.13464.12354.06781.06616.1405.12707.20965.19189.09589.09033.18915.18311.291.2666.139.11451.29864.20215.43249.32276a.7744.7744,0,0,1,.10016.12585,1.27539,1.27539,0,0,1,.17267.32373c.00708.01966.00635.03968.01221.05945.13788.4585-.15277,1.28784-.03925,1.76807a5.04214,5.04214,0,0,0,.214.73022,1.31712,1.31712,0,0,0,.10956.21155.68.68,0,0,0,.17279.1947.481.481,0,0,0,.1.04907l.04834.01978s.05072.01953.13592.04687l.02936.00965a5.01934,5.01934,0,0,0,.92255.19153l.31012.03918.001-.0022c.31366.03553.70667.06263,1.15015.082C20.65633,27.23209,20.61879,26.93582,20.61879,26.93582Z" fill="#fff"/>
      <path d="M23.84261,9.57755c-.19238-.05738-.395-.08887-.59308-.13208A7.83788,7.83788,0,0,0,21.573,9.24478a7.74622,7.74622,0,0,0-1.59638.18225c-.08282.01721-.167.03076-.25012.04761l-.02759.00525c-.0166.00354-.03375.00537-.05023.00952-.173.04309-.33643.10754-.5047.16138a5.62016,5.62016,0,0,1,4.90472,2.93c.01941.03211.03846.06445.05744.09754.01031.01953.02222.03564.03241.05517l-.005-.00317a6.87084,6.87084,0,0,1,.80939,3.41821,7.84025,7.84025,0,0,1-3.62268,6.50928l.00128.00049-.04242.02819-.01635.01087c-.131.0874-.38556.2478-.65985.42053a.32761.32761,0,0,0-.08228.52039l-.01111.00341a1.23544,1.23544,0,0,1,.11884.22278c.007.01966.00628.03968.01214.05945.13788.4585-.15271,1.28784-.03918,1.76807l.01739,1.24377s.03754.29627-.1936.32862c.09393.004.17413.01025.27417.01342.16876.00525.34375.00965.53076.01184.00916.00061.014.00415.024.00415.05261,0,.19751.00122.38031.0022.12005.00061.25342.0011.39831.00073a7.95206,7.95206,0,0,0,1.23255-.05908,7.36529,7.36529,0,0,0,2.00427-.34021.48083.48083,0,0,0,.14874-.069.68.68,0,0,0,.17285-.1947,1.32118,1.32118,0,0,0,.10956-.21155,5.04847,5.04847,0,0,0,.214-.73022,3.57,3.57,0,0,0,.03961-.87183,4.10424,4.10424,0,0,1-.06671-.95569,1.05517,1.05517,0,0,1,.27289-.44958c.13385-.12061.29346-.20825.4325-.32276a7.8692,7.8692,0,0,0,2.26763-3.04431,7.79834,7.79834,0,0,0-5.018-10.47033Z" fill="#00e1ff"/>
      <path d="M19.37667,31.35391l-.00153-.43359-.00055-.00281V29.75577a.10531.10531,0,0,1,.00537-.02686l.0022-.01111-.00549-.00293a.36293.36293,0,0,1,.02362-.08679.56009.56009,0,0,1,.0216-.07922c-.84527-.07422-1.39917-.18958-1.39917-.3208,0-.05457.09729-.10633.26795-.15393a1.28473,1.28473,0,0,0-.32746.12915h-.00006a.95059.95059,0,0,0-.3081.34253.5034.5034,0,0,0-.02246.08227.36293.36293,0,0,0-.02362.08679l.00549.00293c-.001.01319-.00757.02442-.00757.038v1.16174a.49164.49164,0,0,0,.2395.41956l-.002.00244a1.0147,1.0147,0,0,0,.46088.14038l.73394.11987h.01288l.00043-.00012c.00348.00061.01215-.00037.02026-.00012l.03406.00464.00208.00427c.04657.01208.20825.047.44726.084C19.37374,31.62759,19.37667,31.35391,19.37667,31.35391Z" fill="#fff"/>
      <path d="M25.53707,29.71487a.36293.36293,0,0,0-.02362-.08679.50429.50429,0,0,0-.0224-.08227.95105.95105,0,0,0-.30817-.34253,1.21728,1.21728,0,0,0-.29834-.12036c-.02814-.00806-.05762-.01624-.0899-.02442a8.519,8.519,0,0,0-1.53626-.19336c-.24268-.01416-.51868-.02466-.82172-.03222l-.03619.00134-.07837-.00281q-.36154-.00879-.7464-.00928h-.0014c-.09827,0-.19061.00245-.28687.0033-.14788.0011-.29443.00232-.42975.005a13.63054,13.63054,0,0,0-2.51287.23046c-.017.0044-.03839.00879-.05414.01319-.17066.0476-.26795.09936-.26795.15393,0,.13122.5539.24658,1.39917.3208a.56009.56009,0,0,0-.0216.07922.36293.36293,0,0,0-.02362.08679l.00549.00293-.0022.01111a.10531.10531,0,0,0-.00537.02686v1.16174l.00055.00281.00153.43359s-.00293.27368.1795.3385c-.239-.037-.40069-.0719-.44726-.084.38586,1.04834,1.38049,1.29968,2.46411,1.29993a4.68433,4.68433,0,0,0,.88257-.07666,2.53144,2.53144,0,0,0,.80242-.28663,1.744,1.744,0,0,0,.78119-.94091l.03406-.00464c.00812-.00025.01685.00073.02033.00012l.00036.00012h.01288l.734-.11987a1.01532,1.01532,0,0,0,.46094-.14038l-.002-.00244a.49191.49191,0,0,0,.2395-.41956V29.75577c0-.01355-.00665-.02478-.00763-.038Z" fill="#00e1ff"/>
    </g>
  </g>
</svg>
