<svg id="88410cd1-dd9d-422d-b7cd-5cc05aeaeaa5" data-name="Layer 1" xmlns="http://www.w3.org/2000/svg" viewBox="0 0 44.99468 44.99468">
  <title>Guides DB</title>
  <g>
    <circle cx="22.49734" cy="22.49734" r="22.49734" fill="#011b33"/>
    <g>
      <polygon points="11.664 22.295 15.324 21.47 20.543 21.689 28.106 14.845 30.805 14.118 29.574 17.751 19.981 26.47 17.418 24.47 12.334 22.657 11.664 22.295" fill="#00e1ff"/>
      <path d="M30.80519,14.11763l-10.53332,10.581a.58061.58061,0,0,0-.221-.12744l-8.17479-2.17273a.58333.58333,0,0,1-.19734-.10492l-.01492.00128,6.215,3.36209a3.56172,3.56172,0,0,1,1.4279,1.41953l3.33742,6.084.00064.00238a.57836.57836,0,0,0,.12676.22989l.014.02545.00147-.012a.58317.58317,0,0,0,.57861.17459.58941.58941,0,0,0,.39285-.34387L31.126,15.457A1.1619,1.1619,0,0,0,30.80519,14.11763Z" fill="#00e1ff"/>
      <path d="M20.0509,24.57121a.58061.58061,0,0,1,.221.12744l10.53332-10.581a1.15645,1.15645,0,0,0-1.22731-.20783l-17.77647,7.375a.58913.58913,0,0,0-.31852.76987.67821.67821,0,0,0,.39322.34378Z" fill="#fff"/>
    </g>
  </g>
</svg>
