<svg id="33f5f715-008c-4f47-8195-f5a7851e29b3" data-name="Layer 1" xmlns="http://www.w3.org/2000/svg" viewBox="0 0 45 45">
  <title>Success Rates DB</title>
  <circle cx="22.5" cy="22.5" r="22.5" fill="#011b33"/>
  <path d="M36.58786,13.39685l-1.31238.70068L29.963,18.37878,21.43173,25.035l-2.75-2.96875-8.5,6.09375-1.475,1.42774a.37964.37964,0,0,0,.07288.05932c.00219.00147.18347.11426.42736.27686l.26111.178c.13587.09375.27429.19629.40613.29663a2.87356,2.87356,0,0,1,.47461.42114c.04028.05127.08423.11279.12964.17725.09741.14062.20544.30688.30981.47241.26477.42041.5072.83936.50867.84155a.35687.35687,0,0,0,.05164.06958.67325.67325,0,0,0,.49.21241.62785.62785,0,0,0,.35815-.10987.64267.64267,0,0,0,.1073-.07544l5.89966-5.58032,2.33423,2.49023a1.86516,1.86516,0,0,0,1.60583.5647c.007-.00073.082-.01611.089-.01758a1.85992,1.85992,0,0,0,.90784-.446l9.03882-8.5459.587,2.18408a.62067.62067,0,0,0,.59839.46363H33.374a.62049.62049,0,0,0,.60095-.45191l2.7008-9.30908A.37444.37444,0,0,0,36.58786,13.39685Z" fill="#00e1ff"/>
  <path d="M11.474,29.74573l6.87329-6.56079,3.60938,3.70312L36.58786,13.39685a.37763.37763,0,0,0-.35705-.10767L26.89646,15.463a.64724.64724,0,0,0-.3739.2395.66717.66717,0,0,0-.13477.38526.65131.65131,0,0,0,.47717.65039l1.84094.52881L22.03977,23.3512l-2.33826-2.49463a1.85284,1.85284,0,0,0-1.60986-.56543,1.86221,1.86221,0,0,0-.99427.46435L8.72727,28.70227a.62684.62684,0,0,0-.02051.8855l2.662.158Z" fill="#fff"/>
</svg>
