<svg id="492a70eb-bcf8-4395-939c-f2da4c7c6631" data-name="Layer 1" xmlns="http://www.w3.org/2000/svg" viewBox="0 0 45 45">
  <title>Why Choose Paystack DB</title>
  <g>
    <path d="M22.5,0A22.5,22.5,0,1,0,45,22.5,22.5,22.5,0,0,0,22.5,0ZM29.1502,32.14856c0,.731-2.857,2.18713-6.38122,2.18713-.02381,0-.047-.00085-.07032-.00158l-.00152.00146c-3.55579.019-6.45-1.45117-6.45-2.187l.001-.00366-.001-.00342a.24644.24644,0,0,1,.00225-.03272l.0047-.0271.00086-.00512a.32614.32614,0,0,1,.02222-.063H16.277l1.49-2.96472a.50144.50144,0,0,1,.22907-.24915,21.38036,21.38036,0,0,1,4.70263-.57348,21.38025,21.38025,0,0,1,4.70258.57348.50189.50189,0,0,1,.22913.24915l1.48992,2.96472h-.00018a.32681.32681,0,0,1,.02222.063l.00091.00512.00464.0271a.24487.24487,0,0,1,.00232.03272l-.001.00342Zm3.29889-15.46289c.00629,1.1831-.22095,4.062-2.522,4.7478l-1.04981.22949c-.01007.03687-.01977.07276-.03064.11084a6.96,6.96,0,0,1-2.51214,3.74561,5.61006,5.61006,0,0,1-.833.50391c-.17346.08374-.35724.15844-.54382.23046a5.41593,5.41593,0,0,1-.88343.26636l-.00006.00171c-.17962.03528-.35931.05908-.53906.08167-.04364.00549-.0838.01452-.12811.0194-.236.02564-.47217.041-.70832.04395H22.6986a6.42247,6.42247,0,0,1-3.27484-.87817,5.67917,5.67917,0,0,1-1.16913-.943,7.45806,7.45806,0,0,1-1.70392-3.0719c-.01086-.03808-.02056-.074-.03076-.11084l-1.04974-.22949c-2.29584-.68408-2.5271-3.55054-2.52191-4.739-.00061-.00659-.00665-.01123-.00678-.01782a5.17332,5.17332,0,0,1,.08472-.97706.27656.27656,0,0,1,.27393-.22717h1.78759l.7876-.015-.0307-.39185-.22778-2.91528a.22408.22408,0,0,1-.00244-.03418c0-.69068,3.159-1.25171,7.08416-1.26538h.00006c.35608.00146.69007.01538,1.03089.02563.21289.00647.43719.00672.64386.01612l.00989-.001v.00146c3.10479.14209,5.39959.63489,5.39959,1.22315a.23194.23194,0,0,1-.0025.03418l-.22778,2.91528-.0307.39185.78692.015h1.7851a.27655.27655,0,0,1,.27392.22717,5.1742,5.1742,0,0,1,.08466.97706Z" fill="#011b33"/>
    <g>
      <path d="M29.1502,32.14148a.24487.24487,0,0,0-.00232-.03272l-.00464-.0271-.00091-.00512a.32681.32681,0,0,0-.02222-.063h.00018l-1.48992-2.96472a.50189.50189,0,0,0-.22913-.24915,21.38025,21.38025,0,0,0-4.70258-.57348,21.38036,21.38036,0,0,0-4.70263.57348.50144.50144,0,0,0-.22907.24915l-.00451.00891a.96049.96049,0,0,1,.13909,1.35193c-.06884.088-.28356.41308-.40783.54211a1.98689,1.98689,0,0,1,.114.23926,1.91771,1.91771,0,0,0,.44446.40662,6.4344,6.4344,0,0,0,1.94257.87976,7.94278,7.94278,0,0,1,2.7691.941.9772.9772,0,0,1,.33026.909c3.37213-.08593,6.05609-1.4707,6.05609-2.17895l-.001-.00366Z" fill="#00e1ff"/>
      <path d="M32.36785,15.69958a.27655.27655,0,0,0-.27392-.22717h-1.7851l-.78692-.015.0307-.39185.22778-2.91528a.23194.23194,0,0,0,.0025-.03418c0-.58826-2.2948-1.08106-5.39959-1.22315v-.00146l-.00989.001c-.20667-.0094-.431-.00965-.64386-.01612-.34082-.01025-.67481-.02417-1.03089-.02563H22.6986c-.10022.00036-.19757.00256-.29675.00366a.91466.91466,0,0,1-.85071,1.08105c-.5393.04395-5.15918-.11718-5.46332.77942-.10766.31751.87812,1.66565.835,2.21546a2.16313,2.16313,0,0,1-1.38709,1.85205c-1.07953.43664-1.83069-.55274-1.862.83862-.04132,1.83521,1.96942,2.2627,3.101,2.85205a5.37407,5.37407,0,0,1,2.03772,2.42237,2.19247,2.19247,0,0,1-.1134,2.36132,5.44175,5.44175,0,0,0,.72479.532,6.42247,6.42247,0,0,0,3.27484.87817h.00006c.23615-.00293.47229-.01831.70832-.04395.04431-.00488.08447-.01391.12811-.0194.17975-.02259.35944-.04639.53906-.08167l.00006-.00171a5.41593,5.41593,0,0,0,.88343-.26636c.18658-.072.37036-.14672.54382-.23046a5.61006,5.61006,0,0,0,.833-.50391,6.96,6.96,0,0,0,2.51214-3.74561c.01087-.03808.02057-.074.03064-.11084l1.04981-.22949c2.30108-.68579,2.52832-3.5647,2.522-4.7478l.00342-.009A5.1742,5.1742,0,0,0,32.36785,15.69958Z" fill="#00e1ff"/>
    </g>
    <g>
      <polygon points="17.767 29.062 17.767 29.06 17.767 29.058 17.767 29.062" fill="#011b33"/>
      <polygon points="17.767 29.058 17.767 29.06 17.767 29.049 17.766 29.055 17.767 29.058" fill="#00e1ff"/>
      <path d="M29.1502,32.14148a.24487.24487,0,0,0-.00232-.03272l-.00464-.0271-.00091-.00512a.32681.32681,0,0,0-.02222-.063h.00018l-1.48992-2.96472a.50189.50189,0,0,0-.22913-.24915,21.38025,21.38025,0,0,0-4.70258-.57348,21.38036,21.38036,0,0,0-4.70263.57348.50144.50144,0,0,0-.22907.24915l-.00006.01135v.002c.00641.07154.16974.43579,2.78967.62989A2.31562,2.31562,0,0,1,22.69866,31.997v2.33716c.02332.00073.04651.00158.07032.00158,3.52423,0,6.38122-1.45617,6.38122-2.18713l-.001-.00366Z" fill="#00e1ff"/>
      <path d="M20.55657,29.692c-2.61993-.1941-2.78326-.55835-2.78967-.62989l-.00024-.00366-.00031-.0039.00061-.00574-1.49,2.96472h.00019a.32614.32614,0,0,0-.02222.063l-.00086.00512-.0047.0271a.24644.24644,0,0,0-.00225.03272l.001.00342-.001.00366c0,.73584,2.89422,2.206,6.45,2.187l.00152-.00146V31.997A2.31562,2.31562,0,0,0,20.55657,29.692Z" fill="#fff"/>
      <path d="M23.53509,26.60352c.17975-.02259.35944-.04639.53906-.08167l-.00458-.001C23.89831,26.55554,23.71765,26.58044,23.53509,26.60352Z" fill="#fff"/>
      <path d="M21.27282,25.51941a3.0957,3.0957,0,0,0,1.22443-2.56983V20.39319l-1.35932.62915-.22552.10583a.23392.23392,0,0,1-.33234-.23718l.20612-1.8811a.23432.23432,0,0,0-.06207-.18579l-1.29444-1.38037a.23406.23406,0,0,1,.123-.38929l1.85272-.38537a.23478.23478,0,0,0,.15759-.11646l.9126-1.65747c.00476-.0083.01587-.00915.02167-.01636V11.276c0-.32568.89282-.38745,1.2323-.39966-.34082-.01025-.67481-.02417-1.03089-.02563H22.6986c-3.92511.01367-7.08416.5747-7.08416,1.26538a.22408.22408,0,0,0,.00244.03418l.22778,2.91528.0307.39185-.7876.015H13.30017a.27656.27656,0,0,0-.27393.22717,5.17332,5.17332,0,0,0-.08472.97706c.00013.00659.00617.01123.00678.01782-.00519,1.18847.22607,4.05493,2.52191,4.739L16.52,21.663c.0102.03687.0199.07276.03076.11084a7.45806,7.45806,0,0,0,1.70392,3.0719C18.54077,25.114,19.92242,26.29785,21.27282,25.51941Z" fill="#fff"/>
      <path d="M32.09393,15.47241h-1.7851l-.78692-.015.0307-.39185.22778-2.91528a.23194.23194,0,0,0,.0025-.03418c0-.58826-2.2948-1.08106-5.39959-1.22315v-.00146l-.00989.001c-.20667-.0094-.431-.00965-.64386-.01612-.33948.01221-1.2323.074-1.2323.39966v3.60278a.22673.22673,0,0,1,.10736-.08105L22.609,14.786l.07318-.00391.00214.00818a.048.048,0,0,1,.01434.00281l.01136.00244a.20916.20916,0,0,1,.174.09619l.939,1.64295a.23458.23458,0,0,0,.15924.11389l1.85859.35571a.2341.2341,0,0,1,.12927.38745l-1.27228,1.40076a.23429.23429,0,0,0-.05908.18665l.236,1.87744a.23426.23426,0,0,1-.32843.24292l-1.72552-.77735a.2122.2122,0,0,0-.11084.00074l-.01136.00012a.12234.12234,0,0,0-.05072.00049l-.15069.0697v2.55639a3.0957,3.0957,0,0,1-1.22443,2.56983c-1.3504.77844-2.73205-.4054-3.01819-.67371a5.67917,5.67917,0,0,0,1.16913.943,6.42247,6.42247,0,0,0,3.27484.87817h.00006c.23615-.00293.47229-.01831.70832-.04395.04431-.00488.08447-.01391.12811-.0194.18256-.02308.36322-.048.53448-.08265l.00458.001.00006-.00171a5.41593,5.41593,0,0,0,.88343-.26636c.18658-.072.37036-.14672.54382-.23046a5.61006,5.61006,0,0,0,.833-.50391,6.96,6.96,0,0,0,2.51214-3.74561c.01087-.03808.02057-.074.03064-.11084l1.04981-.22949c2.30108-.68579,2.52832-3.5647,2.522-4.7478l.00342-.009a5.1742,5.1742,0,0,0-.08466-.97706A.27655.27655,0,0,0,32.09393,15.47241Z" fill="#00e1ff"/>
      <path d="M21.563,16.55261a.23478.23478,0,0,1-.15759.11646l-1.85272.38537a.23406.23406,0,0,0-.123.38929l1.29444,1.38037a.23432.23432,0,0,1,.06207.18579l-.20612,1.8811a.23392.23392,0,0,0,.33234.23718l.22552-.10583,1.35932-.62915.15069-.0697a.12234.12234,0,0,1,.05072-.00049l.01136-.00012a.2122.2122,0,0,1,.11084-.00074l1.72552.77735a.23426.23426,0,0,0,.32843-.24292l-.236-1.87744a.23429.23429,0,0,1,.05908-.18665l1.27228-1.40076a.2341.2341,0,0,0-.12927-.38745l-1.85859-.35571a.23458.23458,0,0,1-.15924-.11389l-.939-1.64295a.20916.20916,0,0,0-.174-.09619l-.01136-.00244a.048.048,0,0,0-.01434-.00281l-.00214-.00818L22.609,14.786l-.00439.01172a.22673.22673,0,0,0-.10736.08105c-.0058.00721-.01691.00806-.02167.01636Z" fill="#011b33"/>
    </g>
  </g>
  <path d="M16.24713,19.33712l-.20168-1.91667h-.87761S14.94128,19.33712,16.24713,19.33712Z" fill="#011b33"/>
  <path d="M29.03505,19.33712l.20168-1.91667h.8776S30.3409,19.33712,29.03505,19.33712Z" fill="#011b33"/>
</svg>
