<?xml version="1.0" encoding="UTF-8"?>
<svg xmlns="http://www.w3.org/2000/svg" width="286" height="55" viewBox="0 0 286 55" fill="none">
  <path d="M0 16.6901C0 6.2866 7.82603 0 16.1385 0C24.3175 0 29.1475 4.7631 30.568 10.3521L25.4325 12.0639C24.5026 8.17386 21.4721 5.06266 16.0912 5.06266C10.8092 5.06266 5.47995 8.91422 5.47995 16.6173C5.47995 24.1022 10.6456 28.0436 16.1385 28.0436C21.5194 28.0436 24.6016 24.62 25.6778 21.0424L30.6627 22.6472C29.1991 28.0436 24.3089 33.2432 16.1385 33.2432C7.53331 33.2689 0 27.0979 0 16.6901Z" transform="translate(55.2105 11.5149)" fill="#011B33"></path>
  <path d="M22.8453 11.6146C22.8453 18.3719 18.0025 23.2848 11.4033 23.2848C4.8041 23.2848 0 18.3719 0 11.6146C0 4.85724 4.84715 0 11.4033 0C17.9594 0 22.8453 4.90432 22.8453 11.6146ZM17.516 11.6146C17.516 7.09543 14.6361 4.70746 11.3516 4.70746C8.0671 4.70746 5.19153 7.03979 5.19153 11.6103C5.19153 16.1808 8.12736 18.5645 11.3516 18.5645C14.5759 18.5645 17.516 16.1851 17.516 11.6146Z" transform="translate(87.3842 21.5507)" fill="#011B33"></path>
  <path d="M20.7317 0.00855921L25.9663 15.1666L30.3743 0.00855921H35.7036L28.6094 21.9368H23.3274L17.8475 6.13253L12.5182 21.9368H7.12866L0 0.00855921H5.622L10.142 15.1666L15.3077 0L20.7317 0.00855921Z" transform="translate(110.819 22.2179)" fill="#011B33"></path>
  <path d="M12.9142 5.44354C12.3455 5.34596 11.7694 5.29728 11.1923 5.29803C7.13297 5.29803 5.27332 7.63037 5.27332 11.7173V22.2192H0V0.291008H5.13556V3.79165C6.1644 1.40796 8.6095 1.54875e-06 11.4937 1.54875e-06C11.971 -0.000316801 12.447 0.0484438 12.9142 0.145505V5.44354Z" transform="translate(149.304 21.9353)" fill="#011B33"></path>
  <path d="M4.15839 30.774L9.44031 19.3006L0 0H5.93194L12.2771 13.8742L18.2435 0H23.8182L9.78039 30.774H4.15839Z" transform="translate(163.243 22.2261)" fill="#011B33"></path>
  <path d="M39.2249 0H44.8469L35.8499 31.9423H30.2236L22.4493 7.77587L14.6749 31.9423H9.07871L0 0H5.72531L12.1308 23.3362L19.6641 0H25.3377L32.9658 23.4817L39.2249 0Z" transform="translate(186.962 12.2124)" fill="#011B33"></path>
  <path d="M3.46533 6.94516e-05C3.91737 -0.00281101 4.36547 0.0839347 4.78339 0.255235C5.20132 0.426535 5.58071 0.67895 5.89936 0.997722C6.21801 1.31649 6.46953 1.69523 6.63921 2.11177C6.8089 2.52831 6.89334 2.97431 6.88761 3.42368V3.42368C6.88759 4.10171 6.68506 4.76447 6.30569 5.32794C5.92632 5.8914 5.3872 6.33019 4.75667 6.58867C4.12615 6.84716 3.4326 6.91369 2.76399 6.77985C2.09538 6.64601 1.48181 6.31781 1.00105 5.83686C0.520297 5.35592 0.194006 4.74389 0.0635668 4.07838C-0.0668723 3.41286 0.00441687 2.72382 0.268373 2.09862C0.53233 1.47343 0.977086 0.940226 1.54624 0.56662C2.11539 0.193015 2.78331 -0.00416826 3.46533 6.94516e-05ZM0.882478 33.0636V11.1354H6.04818V33.0636H0.882478Z" transform="translate(233.772 11.0913)" fill="#011B33"></path>
  <path d="M4.49847 15.3634C4.69218 17.3577 6.16011 19.108 8.99694 19.108C11.1493 19.108 12.3202 17.9397 12.3202 16.5788C12.3202 15.4105 11.4894 14.4861 9.73734 14.1481L6.45712 13.4163C2.54411 12.5604 0.538094 10.0654 0.538094 7.04835C0.538094 3.19679 4.05937 0 8.65684 0C14.8212 0 16.8359 3.93715 17.1673 6.12398L12.7162 7.40783C12.5225 6.12398 11.5927 4.09977 8.65684 4.09977C6.8015 4.09977 5.47994 5.26807 5.47994 6.62896C5.47994 7.79726 6.34091 8.67028 7.67968 8.91421L11.0546 9.59466C15.213 10.4506 17.4127 12.9969 17.4127 16.2536C17.4127 19.5103 14.7222 23.2548 9.10025 23.2548C2.74213 23.2548 0.297028 19.1251 0 16.643L4.49847 15.3634Z" transform="translate(243.647 21.5465)" fill="#011B33"></path>
  <path d="M21.2267 16.3349C20.0515 20.1864 16.5302 23.2891 11.2483 23.2891C5.28193 23.2891 0 18.9625 0 11.5204C0 4.57052 5.13557 0 10.7102 0C17.5074 0 21.4721 4.47209 21.4721 11.3749C21.4711 11.9303 21.4207 12.4846 21.3214 13.0311H5.18293C5.23459 14.5803 5.89419 16.0478 7.02055 17.1195C8.1469 18.1913 9.65052 18.7822 11.2096 18.7656C14.3865 18.7656 16.0008 17.1138 16.7369 14.9141L21.2267 16.3349ZM16.1902 9.23518C16.0911 6.66748 14.3779 4.37366 10.7619 4.37366C9.41105 4.35099 8.10237 4.84128 7.10255 5.74458C6.10273 6.64789 5.48703 7.89623 5.38094 9.23518H16.1902Z" transform="translate(263.255 21.5465)" fill="#011B33"></path>
  <path d="M16.1264 32.0086C13.2624 32.0156 10.4485 31.2624 7.97534 29.8268C5.50213 28.3911 3.45928 26.3251 2.05779 23.8422C0.656297 21.3593 -0.053024 18.5494 0.00308877 15.7028C0.0592015 12.8562 0.878714 10.0761 2.37698 7.64962L2.62666 7.27731L5.50223 9.14317L5.31282 9.39138C3.99681 11.5109 3.34253 13.9708 3.4327 16.46C3.52287 18.9492 4.35344 21.3559 5.81939 23.3758C7.28535 25.3957 9.32086 26.9382 11.6686 27.8081C14.0163 28.6781 16.5707 28.8365 19.0089 28.2632C21.4472 27.69 23.6597 26.4109 25.3667 24.5877C27.0738 22.7645 28.1987 20.479 28.5993 18.0203C28.9999 15.5615 28.6581 13.0399 27.6172 10.7742C26.5762 8.50858 24.8829 6.60062 22.7514 5.29161C20.766 4.05699 18.4681 3.4098 16.1264 3.42575V0.00213992C18.2619 -0.0325835 20.383 0.355583 22.3662 1.14402C24.3493 1.93245 26.1548 3.10539 27.6773 4.59447C29.1999 6.08355 30.4091 7.859 31.2345 9.81735C32.0599 11.7757 32.485 13.8778 32.485 16.0011C32.485 18.1244 32.0599 20.2265 31.2345 22.1848C30.4091 24.1432 29.1999 25.9186 27.6773 27.4077C26.1548 28.8968 24.3493 30.0697 22.3662 30.8582C20.383 31.6466 18.2619 32.0348 16.1264 32V32.0086Z" transform="translate(6.54898 13.7638)" fill="#011B33"></path>
  <path d="M4.67716 16.5232C3.66645 19.5189 3.40558 22.7143 3.91715 25.8328C4.42871 28.9513 5.69728 31.8989 7.613 34.4201C9.61369 36.9731 12.2345 38.9784 15.2291 40.2476C18.2238 41.5167 21.4938 42.0081 24.732 41.6754C27.9701 41.3427 31.07 40.1969 33.7403 38.3458C36.4105 36.4946 38.5635 33.9989 39.9967 31.0931C41.4299 28.1873 42.0964 24.967 41.9335 21.7347C41.7706 18.5025 40.7836 15.3645 39.0654 12.6157C37.3472 9.8669 34.9541 7.59759 32.111 6.02106C29.268 4.44454 26.0685 3.61256 22.8131 3.60335V0C28.3828 0.0438461 33.7449 2.10754 37.8924 5.80356C42.0399 9.49958 44.6875 14.5737 45.3381 20.073C45.9887 25.5724 44.5974 31.1187 41.4257 35.6704C38.2539 40.2222 33.5197 43.4663 28.1122 44.7936C24.6061 45.6126 20.9548 45.5948 17.457 44.7417C13.9591 43.8885 10.7142 42.2243 7.98751 39.885C5.18422 37.4385 3.00778 34.3631 1.63855 30.9136C0.269329 27.4641 -0.253251 23.7398 0.114123 20.0495C0.23483 18.9622 0.421712 17.8833 0.67374 16.8185" transform="translate(0 7.06439)" fill="#011B33"></path>
  <path d="M22.3158 3.481L0 3.35689L1.87687 0.249972C1.91394 0.169383 1.97527 0.102221 2.05237 0.0577603C2.12948 0.0132998 2.21857 -0.00626753 2.30735 0.00175976H22.3158V3.481Z" transform="translate(0.673706 20.6074)" fill="#011B33"></path>
  <path d="M22.8754 3.43629H0L1.06327 1.6988C1.31295 1.27085 1.68746 0.329362 2.12655 0.0811506C2.38812 -0.000275689 2.66502 -0.0207758 2.93584 0.0212374H18.1876L22.8754 3.43629Z" transform="translate(4.48773 13.7533)" fill="#011B33"></path>
  <path d="M19.0614 3.60335H0L1.87256 0.248212C1.91836 0.174938 1.98158 0.113979 2.05664 0.0706967C2.13171 0.0274147 2.21632 0.00313706 2.30304 0L15.1226 0L19.0614 3.60335Z" transform="translate(8.30164 7)" fill="#011B33"></path>
  <path d="M9.19494 18.265C7.37769 18.2666 5.60077 17.7325 4.08895 16.73C2.57713 15.7276 1.39836 14.3019 0.701746 12.6333C0.00513381 10.9647 -0.178015 9.12816 0.175468 7.35607C0.528952 5.58398 1.40318 3.95593 2.68757 2.67787C3.97196 1.39982 5.60879 0.529182 7.391 0.176109C9.17321 -0.176964 11.0207 0.00338928 12.6998 0.694353C14.3789 1.38532 15.8141 2.55584 16.8239 4.05786C17.8337 5.55987 18.3727 7.32588 18.3727 9.13248C18.3693 11.552 17.4015 13.8717 15.6813 15.5833C13.9612 17.295 11.6288 18.2593 9.19494 18.265ZM9.19494 3.47924C8.44754 3.47698 7.70705 3.62166 7.0161 3.90497C6.32515 4.18827 5.69736 4.60459 5.16886 5.13C4.64036 5.6554 4.22158 6.2795 3.93661 6.96641C3.65164 7.65331 3.5061 8.38945 3.50837 9.13248C3.4874 9.89221 3.61982 10.6484 3.89779 11.3564C4.17575 12.0644 4.59364 12.7099 5.12676 13.2546C5.65988 13.7993 6.29741 14.2323 7.0017 14.528C7.70598 14.8236 8.46273 14.9759 9.22723 14.9759C9.99173 14.9759 10.7485 14.8236 11.4528 14.528C12.157 14.2323 12.7946 13.7993 13.3277 13.2546C13.8608 12.7099 14.2787 12.0644 14.5567 11.3564C14.8346 10.6484 14.9671 9.89221 14.9461 9.13248V9.13248C14.9159 7.63146 14.2983 6.20128 13.2244 5.1457C12.1506 4.09012 10.7051 3.49231 9.19494 3.47924V3.47924Z" transform="translate(13.4802 20.6088)" fill="#011B33"></path>
</svg>
