<?xml version="1.0" encoding="UTF-8"?>
<svg xmlns="http://www.w3.org/2000/svg" width="222" height="50" viewBox="0 0 222 50" fill="none">
  <path d="M25.0981 1.98431C24.0989 3.74772 22.6511 5.21548 20.9016 6.23867C19.152 7.26187 17.1629 7.80409 15.1361 7.81034C13.0815 7.81305 11.0602 7.29085 9.26396 6.29326C7.48366 5.3496 6.00453 3.92444 4.99538 2.18044C4.59754 1.49077 4.27644 0.759596 4.03784 0H0V20.8929H3.7725V5.54915C5.22016 7.31657 7.02717 8.75588 9.0736 9.77157C11.0812 10.7291 13.2812 11.2145 15.5053 11.1906C17.4808 11.2215 19.4417 10.8475 21.2672 10.0915C23.0926 9.33555 24.7438 8.2137 26.1191 6.79511C28.0249 4.93356 29.3802 2.58225 30.0358 0H25.9979C25.7576 0.686882 25.4564 1.35095 25.0981 1.98431Z" transform="translate(0 29.1071)" fill="#011B33"></path>
  <path d="M6.84702 6.84301C7.92189 5.76049 9.20623 4.90855 10.6215 4.33925C12.0368 3.76995 13.5534 3.49527 15.0784 3.53198C17.1098 3.51032 19.1112 4.02359 20.8814 5.02021C22.649 6.02158 24.1106 7.48523 25.1096 9.25418C25.4786 9.90662 25.7857 10.5922 26.0268 11.3019H30.0646C29.4114 8.66254 28.0233 6.2624 26.0614 4.37993C24.6705 2.96565 23.0071 1.8484 21.1718 1.09584C19.3365 0.343282 17.3675 -0.0289288 15.3842 0.00175373C13.1341 -0.0305633 10.9096 0.48202 8.90055 1.49575C6.87255 2.57013 5.11817 4.09559 3.7725 5.95468V0.705492H0V11.3019H4.08976C4.63606 9.61514 5.58201 8.08538 6.84702 6.84301V6.84301Z" transform="translate(0 10.312)" fill="#011B33"></path>
  <path d="M25.0692 2.1689C24.0602 3.91096 22.5835 5.33568 20.8064 6.28173C19.0155 7.28359 16.9978 7.80986 14.9458 7.81034C12.9115 7.81046 10.9136 7.27135 9.15551 6.24792C7.39744 5.22449 5.94208 3.75333 4.9377 1.98431C4.57925 1.35099 4.2781 0.686917 4.03784 0H0C0.655529 2.58225 2.01083 4.93356 3.91671 6.79511C5.2939 8.2143 6.94712 9.33644 8.77449 10.0924C10.6019 10.8483 12.5647 11.2221 14.542 11.1906C16.7715 11.2131 18.9769 10.7278 20.991 9.77158C23.0442 8.75885 24.8575 7.31926 26.3094 5.54915V10.4522H30.0242V0H25.9864C25.7599 0.75396 25.4524 1.48117 25.0692 2.1689V2.1689Z" transform="translate(36.7155 29.1071)" fill="#011B33"></path>
  <path d="M5.00692 9.28308C6.00746 7.51337 7.47118 6.04965 9.24089 5.04912C11.0149 4.05154 13.0202 3.53829 15.0554 3.56089C16.5834 3.5262 18.1025 3.80346 19.5198 4.37573C20.9371 4.948 22.2228 5.80325 23.2983 6.88922C24.5654 8.13097 25.5134 9.66077 26.0614 11.3481H30.0992V0.734397H26.3844V5.98359C25.0493 4.10746 23.2929 2.57042 21.2563 1.49582C19.2312 0.481089 16.9915 -0.0313402 14.7266 0.00181754C12.7414 -0.0294281 10.7706 0.342479 8.93333 1.09503C7.09609 1.84757 5.43065 2.96511 4.03784 4.37999C2.06296 6.25792 0.662583 8.65856 0 11.302H4.03784C4.2971 10.6002 4.62154 9.92431 5.00692 9.28308V9.28308Z" transform="translate(36.6347 10.2831)" fill="#011B33"></path>
  <path d="M7.6719 3.88786L5.88948 0H1.86317L5.64144 8.29488L0 20.8929H3.98593L13.3537 0H9.4024L7.6719 3.88786Z" transform="translate(78.4668 29.1071)" fill="#011B33"></path>
  <path d="M8.72751 0H4.71274L0 10.5964H3.97439L8.72751 0Z" transform="translate(91.2033 11.0175)" fill="#011B33"></path>
  <path d="M3.98593 0H0L4.8281 10.5964H8.8371L3.98593 0Z" transform="translate(72.087 11.0175)" fill="#011B33"></path>
  <path d="M3.7725 0H0V21.614H3.7725V0Z" transform="translate(104.234)" fill="#011B33"></path>
  <path d="M3.7725 0H0V10.4522H3.7725V0Z" transform="translate(104.234 29.1071)" fill="#011B33"></path>
  <path d="M26.3844 5.98359C25.0493 4.10746 23.2929 2.57042 21.2563 1.49582C19.2312 0.481089 16.9915 -0.0313402 14.7266 0.00181754C12.7414 -0.0294281 10.7706 0.342479 8.93334 1.09503C7.09609 1.84757 5.43065 2.96511 4.03784 4.37999C2.06295 6.25792 0.662583 8.65856 0 11.302H4.03784C4.2788 10.5922 4.58588 9.90662 4.95501 9.25424C5.95555 7.48453 7.41927 6.02081 9.18898 5.02028C10.9726 4.02882 12.9862 3.52542 15.0265 3.56089C16.5572 3.53509 18.0774 3.81775 19.4965 4.39201C20.9156 4.96627 22.2046 5.82039 23.2866 6.90344C24.3685 7.98648 25.2214 9.27629 25.7942 10.696C26.3671 12.1156 26.6482 13.6361 26.6209 15.1668C26.6499 17.2126 26.1342 19.2293 25.1269 21.0101C24.1179 22.7522 22.6412 24.1769 20.8641 25.123C19.0699 26.1197 17.0502 26.6401 14.9977 26.6343C12.9634 26.6344 10.9655 26.0953 9.20743 25.0718C7.44937 24.0484 5.99401 22.5772 4.98962 20.8082C4.63117 20.1749 4.33002 19.5108 4.08976 18.8239H0.0519218C0.707451 21.4062 2.06275 23.7575 3.96862 25.619C5.34581 27.0382 6.99904 28.1604 8.82641 28.9163C10.6538 29.6723 12.6166 30.046 14.5939 30.0145C16.8234 30.037 19.0288 29.5517 21.0429 28.5955C23.1045 27.5855 24.9258 26.1458 26.3844 24.3731V29.2762H30.0992V0.734397H26.3844V5.98359Z" transform="translate(114.94 10.2831)" fill="#011B33"></path>
  <path d="M8.91208 0H5.14535V10.5964H0V13.769H5.14535V39.1382H8.91208V13.769H14.8881V10.5964H8.91208V0Z" transform="translate(151.656 0.421089)" fill="#011B33"></path>
  <path d="M27.0082 5.53761C24.024 1.84972 20.0362 0.00384556 15.0446 0C10.1915 0 6.31905 1.80165 3.42719 5.40494C1.17794 8.13229 -0.0355877 11.5665 0.000794938 15.1015C-0.00538027 18.9366 1.43674 22.6325 4.03864 25.4499C6.73053 28.5033 10.4684 30.03 15.2523 30.03C17.2168 30.0574 19.1704 29.7332 21.0206 29.0725C22.7208 28.4403 24.2864 27.4931 25.6353 26.2806C27.1293 24.9012 28.3623 23.2637 29.2751 21.4467L26.0968 19.82C25.2368 21.3195 24.1555 22.6808 22.8896 23.8579C21.8204 24.7397 20.6011 25.4216 19.2901 25.871C17.8939 26.3774 16.4202 26.637 14.935 26.6382C13.4874 26.6722 12.0483 26.4076 10.7075 25.8607C9.36666 25.3139 8.15293 24.4966 7.14201 23.4599C6.08986 22.382 5.26047 21.1074 4.70125 19.7089C4.14203 18.3103 3.86394 16.8153 3.8829 15.3092H30.2442C30.2058 11.4021 29.1271 8.1449 27.0082 5.53761ZM4.25784 12.1251C5.02695 9.50238 6.16908 7.53538 7.68423 6.22404C9.7317 4.43098 12.3755 3.46809 15.0966 3.52446C16.8181 3.52031 18.5201 3.88826 20.0862 4.60314C21.5589 5.23994 22.864 6.20939 23.8991 7.43539C24.9641 8.82225 25.7141 10.4246 26.0968 12.1308L4.25784 12.1251Z" transform="translate(170.771 10.2792)" fill="#011B33"></path>
  <path d="M11.4732 0C10.0546 0.00992247 8.66953 0.432855 7.48732 1.21712C6.04667 2.19642 4.81202 3.4487 3.85325 4.90309V0.73258H0V29.2743H3.85325V19.6239C3.85325 14.6747 4.08592 11.3867 4.55123 9.76004C5.16268 7.64498 6.051 6.08368 7.2162 5.07614C8.20163 4.14004 9.49747 3.59993 10.856 3.55907C11.5451 3.59476 12.2209 3.7632 12.8461 4.05515L14.8131 0.957545C13.7977 0.363326 12.6492 0.0340426 11.4732 0V0Z" transform="translate(206.61 10.285)" fill="#011B33"></path>
  <path d="M8.7102 18.8855C10.4227 18.8904 12.1044 18.4294 13.5751 17.552C15.0457 16.6745 16.2501 15.4136 17.0593 13.9043C17.8684 12.3949 18.2518 10.6939 18.1685 8.98341C18.0852 7.27289 17.5383 5.61722 16.5863 4.19365C15.6343 2.77007 14.3131 1.6322 12.7641 0.901825C11.2151 0.171452 9.49665 -0.123917 7.79268 0.047335C6.08871 0.218587 4.46339 0.850014 3.09071 1.87402C1.71803 2.89803 0.649668 4.27606 0 5.8606H6.34518V3.77246L15.263 9.44274L6.34518 15.113V13.3537H0.121139C0.870803 15.0029 2.07932 16.4015 3.60236 17.3824C5.12541 18.3633 6.89861 18.8851 8.7102 18.8855V18.8855Z" transform="translate(121.135 15.7534)" fill="#011B33"></path>
</svg>
