<?xml version="1.0" encoding="UTF-8"?>
<svg xmlns="http://www.w3.org/2000/svg" width="169" height="47" viewBox="0 0 169 47" fill="none">
  <path d="M3.05146 14.7169H0V9.40248H3.05146V0H8.86512V9.40248H14.2592V14.7169H8.86512V25.6524C8.86512 28.326 9.78585 29.303 11.9166 29.303C12.6008 29.3139 13.284 29.2481 13.9536 29.1068V34.3068C12.9683 34.5174 11.9623 34.6147 10.9551 34.597C5.65885 34.597 3.05553 31.8294 3.05553 26.2861V14.7169H3.05146Z" transform="translate(0 2.68555)" fill="#011B33"></path>
  <path d="M18.2558 18.0883C19.6524 16.6605 20.4349 14.7397 20.4349 12.7391C20.4349 10.7384 19.6524 8.81767 18.2558 7.38987C17.5638 6.6915 16.7374 6.14179 15.8268 5.77422C14.9163 5.40665 13.9407 5.22891 12.9595 5.25182C11.9956 5.23106 11.0378 5.41024 10.1461 5.77814C9.25435 6.14604 8.44794 6.69474 7.77735 7.38987C6.46544 8.86065 5.74009 10.7652 5.74009 12.7391C5.74009 14.7129 6.46544 16.6175 7.77735 18.0883C8.44854 18.7826 9.25505 19.3308 10.1466 19.6986C11.0382 20.0664 11.9957 20.2461 12.9595 20.2263C13.9406 20.2483 14.9159 20.0701 15.8263 19.7026C16.7367 19.335 17.5632 18.7858 18.2558 18.0883V18.0883ZM19.9913 4.03768V0.489262H25.805V17.6018C25.805 19.6908 26.2898 20.4634 27.5976 20.4634C27.9357 20.4634 28.3716 20.4143 28.8198 20.3694V25.0829C27.8994 25.3815 26.9349 25.5197 25.968 25.4917C24.7882 25.5527 23.6148 25.2838 22.5784 24.715C22.0623 24.383 21.6196 23.9483 21.2776 23.4378C20.9357 22.9273 20.7017 22.3519 20.5902 21.747C18.8954 24.3266 16.0843 25.5898 12.2099 25.5898C10.5801 25.6248 8.96128 25.3153 7.45851 24.6815C5.95575 24.0476 4.60273 23.1035 3.48738 21.9106C1.1611 19.4291 0 16.4162 0 12.7697C0 9.12319 1.1611 6.11031 3.48738 3.68202C4.60225 2.48848 5.95519 1.54398 7.45806 0.910055C8.96094 0.27613 10.58 -0.0330025 12.2099 0.00278815C16.1332 0.00278815 19.0869 1.75247 20.0076 4.09082" transform="translate(15.4529 11.6151)" fill="#011B33"></path>
  <path d="M0 24.4996L9.25215 11.5691L0.822956 0H7.12143L12.4503 7.34211L17.7302 0H24.0776L15.6484 11.5201L24.9006 24.4996H18.651L12.4503 15.8452L6.24958 24.4996H0Z" transform="translate(45.8371 12.1044)" fill="#011B33"></path>
  <path d="M0.582677 9.81937H6.39633V27.0259C6.39633 28.9228 6.78337 29.6055 8.09114 29.6055C8.43305 29.6069 8.77425 29.574 9.10965 29.5073V34.413C8.17242 34.7237 7.18702 34.8622 6.20078 34.8218C2.47303 34.8218 0.582677 32.7328 0.582677 28.5998V9.81937ZM8.56992e-05 3.49927C-0.00473168 2.81204 0.193649 2.13881 0.570139 1.56471C0.946628 0.990605 1.48432 0.541421 2.11522 0.273955C2.74612 0.00648885 3.44189 -0.0672446 4.11456 0.0620741C4.78722 0.191393 5.40656 0.517958 5.89426 1.00047C6.38196 1.48299 6.71612 2.09978 6.85448 2.77286C6.99284 3.44594 6.92919 4.14508 6.67157 4.78186C6.41395 5.41863 5.97393 5.96446 5.40717 6.35031C4.84041 6.73616 4.17235 6.9447 3.48747 6.94957C3.03152 6.95718 2.57865 6.8735 2.15531 6.70341C1.73198 6.53333 1.3467 6.28025 1.02198 5.95899C0.697272 5.63773 0.43965 5.25473 0.264187 4.83239C0.0887246 4.41005 -0.00106051 3.95684 8.56992e-05 3.49927V3.49927Z" transform="translate(71.9883 2.285)" fill="#011B33"></path>
  <path d="M3.99256 34.604V15.3902H0V10.0758H3.99256V8.84934C3.99256 5.10879 4.76663 3.12609 6.65699 1.60535C7.96475 0.538369 9.95289 0.00283384 12.711 0.00283384C13.5547 -0.0149233 14.398 0.0508044 15.2288 0.199061V5.26414C14.5031 5.07423 13.7538 4.9916 13.0043 5.01885C10.8247 5.01885 9.80623 5.9918 9.80623 8.46915V10.1044H14.4099V15.4188H9.80623V34.6326L3.99256 34.604Z" transform="translate(81.9698 2.00001)" fill="#011B33"></path>
  <path d="M3.34072 29.4175C4.21931 29.6887 5.13491 29.8197 6.05403 29.8059C6.80122 29.8407 7.54214 29.6545 8.18476 29.2703C8.71846 28.931 9.20326 28.2034 9.5903 27.1813L10.2218 25.4194L0 0.0081747H5.86255L13.0329 18.4697L19.7673 0H25.6257L14.6788 28.4854C14.1183 30.1095 13.2276 31.5991 12.0632 32.8596C10.6088 34.225 8.66957 34.9036 6.2007 34.9036C5.23663 34.9092 4.27659 34.7785 3.34886 34.5153L3.34072 29.4175Z" transform="translate(98.0256 12.0962)" fill="#011B33"></path>
  <path d="M18.6761 3.64225C15.7286 3.64118 12.8469 4.5124 10.3955 6.14572C7.94418 7.77904 6.0333 10.1011 4.90456 12.8182C3.77583 15.5353 3.47995 18.5253 4.05434 21.4102C4.62874 24.2951 6.0476 26.9452 8.13148 29.0254C10.2154 31.1056 12.8706 32.5224 15.7615 33.0966C18.6524 33.6708 21.649 33.3766 24.3723 32.2513C27.0956 31.126 29.4233 29.22 31.061 26.7745C32.6987 24.329 33.5729 21.4538 33.5729 18.5125C33.5729 14.5696 32.0036 10.7881 29.21 7.99954C26.4165 5.21099 22.6275 3.64367 18.6761 3.64225ZM37.3415 18.6362C37.3415 28.5623 31.0604 33.5764 18.6761 45.6383V37.2617C14.983 37.2627 11.3724 36.1708 8.3012 34.1241C5.22998 32.0773 2.83608 29.1676 1.42227 25.763C0.00845545 22.3585 -0.361745 18.612 0.358498 14.9975C1.07874 11.3829 2.85706 8.06275 5.46854 5.45685C8.08002 2.85096 11.4073 1.07644 15.0296 0.357732C18.6519 -0.360971 22.4064 0.00843506 25.8182 1.41923C29.2301 2.83002 32.146 5.21881 34.1972 8.28346C36.2483 11.3481 37.3426 14.9509 37.3415 18.6362Z" transform="translate(130.867)" fill="#011B33"></path>
  <path d="M0 6.39141H6.40509V0H0V6.39141Z" transform="translate(139.935 16.9146)" fill="#011B33"></path>
  <path d="M0 6.39141H6.4051V0H0V6.39141Z" transform="translate(146.34 10.5232)" fill="#011B33"></path>
  <path d="M0 6.39141H6.4051V0H0V6.39141Z" transform="translate(152.745 16.9146)" fill="#011B33"></path>
</svg>
